TITLE ""
FILE "1Q_t_2001-2009.mp3" MP3
  TRACK 01 AUDIO
    TITLE "1Q_t_2001-2009_01"
    INDEX 01 00:00:00
  TRACK 02 AUDIO
    TITLE "1Q_t_2001-2009_02"
    INDEX 01 00:00:10
  TRACK 03 AUDIO
    TITLE "1Q_t_2001-2009_03"
    INDEX 01 00:01:61
  TRACK 04 AUDIO
    TITLE "1Q_t_2001-2009_04"
    INDEX 01 00:02:35
  TRACK 05 AUDIO
    TITLE "1Q_t_2001-2009_05"
    INDEX 01 00:03:40
  TRACK 06 AUDIO
    TITLE "1Q_t_2001-2009_06"
    INDEX 01 00:04:10
  TRACK 07 AUDIO
    TITLE "1Q_t_2001-2009_07"
    INDEX 01 00:05:35
  TRACK 08 AUDIO
    TITLE "1Q_t_2001-2009_08"
    INDEX 01 00:05:43
  TRACK 09 AUDIO
    TITLE "1Q_t_2001-2009_09"
    INDEX 01 00:07:46
  TRACK 10 AUDIO
    TITLE "1Q_t_2001-2009_10"
    INDEX 01 00:07:55
  TRACK 11 AUDIO
    TITLE "1Q_t_2001-2009_11"
    INDEX 01 00:12:10
  TRACK 12 AUDIO
    TITLE "1Q_t_2001-2009_12"
    INDEX 01 00:12:57
  TRACK 13 AUDIO
    TITLE "1Q_t_2001-2009_13"
    INDEX 01 00:13:70
  TRACK 14 AUDIO
    TITLE "1Q_t_2001-2009_14"
    INDEX 01 00:14:07
  TRACK 15 AUDIO
    TITLE "1Q_t_2001-2009_15"
    INDEX 01 00:15:22
  TRACK 16 AUDIO
    TITLE "1Q_t_2001-2009_16"
    INDEX 01 00:15:33
  TRACK 17 AUDIO
    TITLE "1Q_t_2001-2009_17"
    INDEX 01 00:20:07
  TRACK 18 AUDIO
    TITLE "1Q_t_2001-2009_18"
    INDEX 01 00:20:54
  TRACK 19 AUDIO
    TITLE "1Q_t_2001-2009_19"
    INDEX 01 00:21:73
  TRACK 20 AUDIO
    TITLE "1Q_t_2001-2009_20"
    INDEX 01 00:22:08
  TRACK 21 AUDIO
    TITLE "1Q_t_2001-2009_21"
    INDEX 01 00:26:18
  TRACK 22 AUDIO
    TITLE "1Q_t_2001-2009_22"
    INDEX 01 00:26:25
  TRACK 23 AUDIO
    TITLE "1Q_t_2001-2009_23"
    INDEX 01 00:30:41
  TRACK 24 AUDIO
    TITLE "1Q_t_2001-2009_24"
    INDEX 01 00:31:13
  TRACK 25 AUDIO
    TITLE "1Q_t_2001-2009_25"
    INDEX 01 00:32:18
  TRACK 26 AUDIO
    TITLE "1Q_t_2001-2009_26"
    INDEX 01 00:32:28
  TRACK 27 AUDIO
    TITLE "1Q_t_2001-2009_27"
    INDEX 01 00:35:71
  TRACK 28 AUDIO
    TITLE "1Q_t_2001-2009_28"
    INDEX 01 00:36:06
  TRACK 29 AUDIO
    TITLE "1Q_t_2001-2009_29"
    INDEX 01 00:40:29
  TRACK 30 AUDIO
    TITLE "1Q_t_2001-2009_30"
    INDEX 01 00:41:01
  TRACK 31 AUDIO
    TITLE "1Q_t_2001-2009_31"
    INDEX 01 00:42:09
  TRACK 32 AUDIO
    TITLE "1Q_t_2001-2009_32"
    INDEX 01 00:42:19
  TRACK 33 AUDIO
    TITLE "1Q_t_2001-2009_33"
    INDEX 01 00:43:53
  TRACK 34 AUDIO
    TITLE "1Q_t_2001-2009_34"
    INDEX 01 00:43:61
  TRACK 35 AUDIO
    TITLE "1Q_t_2001-2009_35"
    INDEX 01 00:49:54
  TRACK 36 AUDIO
    TITLE "1Q_t_2001-2009_36"
    INDEX 01 00:50:24
  TRACK 37 AUDIO
    TITLE "1Q_t_2001-2009_37"
    INDEX 01 00:51:29
  TRACK 38 AUDIO
    TITLE "1Q_t_2001-2009_38"
    INDEX 01 00:51:39
  TRACK 39 AUDIO
    TITLE "1Q_t_2001-2009_39"
    INDEX 01 00:52:38
  TRACK 40 AUDIO
    TITLE "1Q_t_2001-2009_40"
    INDEX 01 00:52:48
  TRACK 41 AUDIO
    TITLE "1Q_t_2001-2009_41"
    INDEX 01 00:57:30
  TRACK 42 AUDIO
    TITLE "1Q_t_2001-2009_42"
    INDEX 01 00:58:04
  TRACK 43 AUDIO
    TITLE "1Q_t_2001-2009_43"
    INDEX 01 00:59:13
  TRACK 44 AUDIO
    TITLE "1Q_t_2001-2009_44"
    INDEX 01 00:59:21
  TRACK 45 AUDIO
    TITLE "1Q_t_2001-2009_45"
    INDEX 01 01:00:40
  TRACK 46 AUDIO
    TITLE "1Q_t_2001-2009_46"
    INDEX 01 01:00:48
  TRACK 47 AUDIO
    TITLE "1Q_t_2001-2009_47"
    INDEX 01 01:05:72
  TRACK 48 AUDIO
    TITLE "1Q_t_2001-2009_48"
    INDEX 01 01:06:43
  TRACK 49 AUDIO
    TITLE "1Q_t_2001-2009_49"
    INDEX 01 01:07:54
  TRACK 50 AUDIO
    TITLE "1Q_t_2001-2009_50"
    INDEX 01 01:07:64
  TRACK 51 AUDIO
    TITLE "1Q_t_2001-2009_51"
    INDEX 01 01:09:29
  TRACK 52 AUDIO
    TITLE "1Q_t_2001-2009_52"
    INDEX 01 01:09:37
  TRACK 53 AUDIO
    TITLE "1Q_t_2001-2009_53"
    INDEX 01 01:13:07
  TRACK 54 AUDIO
    TITLE "1Q_t_2001-2009_54"
    INDEX 01 01:13:54
  TRACK 55 AUDIO
    TITLE "1Q_t_2001-2009_55"
    INDEX 01 01:15:00
  TRACK 56 AUDIO
    TITLE "1Q_t_2001-2009_56"
    INDEX 01 01:15:10
  TRACK 57 AUDIO
    TITLE "1Q_t_2001-2009_57"
    INDEX 01 01:17:52
  TRACK 58 AUDIO
    TITLE "1Q_t_2001-2009_58"
    INDEX 01 01:17:60
  TRACK 59 AUDIO
    TITLE "1Q_t_2001-2009_59"
    INDEX 01 01:23:68
